<svg width="151" height="132" viewBox="0 0 151 132" fill="none" xmlns="http://www.w3.org/2000/svg">
<g id="CTP Medium Left" clip-path="url(#clip0_3064_10401)">
<g id="SSA Shapes">
<path id="Vector" d="M102.932 25.7793C102.161 28.4826 101.292 31.1611 100.472 33.8519C102.137 33.8395 103.801 33.8519 105.465 33.8519C105.118 32.5314 104.658 31.2358 104.273 29.9153C103.801 28.5325 103.478 27.1123 102.932 25.7793Z" fill="#2E50BC"/>
<path id="Vector_2" d="M121.923 11.0088C109.006 11.0212 96.0879 10.9963 83.1701 11.0212C83.1701 24.2514 83.1701 37.494 83.1701 50.7242C96.0879 50.7366 109.006 50.7242 121.923 50.7242C121.923 37.494 121.923 24.2514 121.923 11.0088ZM108.211 42.6142C107.739 41.1566 107.292 39.6741 106.832 38.2166C104.261 38.2166 101.702 38.2166 99.131 38.2166C98.659 39.6866 98.2367 41.1691 97.7523 42.6266C95.7401 42.6017 93.7279 42.6266 91.7157 42.6142C94.5974 34.7782 97.4293 26.9298 100.323 19.0939C102.087 19.1063 103.863 19.0939 105.64 19.1063C108.509 26.9423 111.403 34.7782 114.285 42.6142C112.247 42.6142 110.235 42.6142 108.211 42.6142Z" fill="#2E50BC"/>
<path id="Vector_3" d="M38.7657 50.7242C38.7657 37.4816 38.7657 24.2389 38.7657 11.0088C25.8479 11.0088 12.9178 11.0088 0 11.0088C0 24.2514 0 37.4816 0 50.7242C12.9178 50.7366 25.8355 50.7242 38.7657 50.7242ZM22.0471 34.3547C20.6312 33.383 18.9295 33.0217 17.3645 32.3739C15.4392 31.6389 13.4891 30.6921 12.1849 29.0476C10.9553 27.5527 10.6199 25.4349 11.1788 23.6036C11.6384 22.1336 12.7439 20.9376 14.0729 20.1777C15.9609 19.0814 18.1967 18.7202 20.3579 18.77C22.6433 18.8572 25.0157 19.5299 26.6801 21.1743C27.9968 22.4326 28.7172 24.2514 28.6675 26.0578C26.7919 26.0453 24.9164 26.0702 23.0408 26.0453C23.0532 25.3103 22.8545 24.5255 22.3204 23.9898C21.4509 23.0555 20.0474 22.9184 18.855 23.1302C17.7619 23.2797 16.6068 24.0895 16.5571 25.2854C16.4826 26.0329 17.0042 26.6558 17.5632 27.0793C18.768 27.9265 20.2088 28.3126 21.5751 28.7985C23.5873 29.5086 25.6368 30.3806 27.0776 32.0126C28.1955 33.2335 28.7544 34.9028 28.6427 36.5472C28.6799 38.3038 27.8353 40.0479 26.4317 41.1068C24.5686 42.5519 22.1341 42.9505 19.8362 42.9256C17.3893 42.9256 14.8803 42.2654 12.9178 40.7704C11.1416 39.4374 10.1479 37.195 10.21 34.9776C12.0856 34.9776 13.9611 34.99 15.8491 34.9776C15.8988 35.9617 16.0727 37.0206 16.8055 37.7307C17.6626 38.5156 18.8922 38.6526 20.0101 38.6651C21.0286 38.6775 22.1962 38.3785 22.7427 37.4442C23.3017 36.4227 23.0284 35.0149 22.0471 34.3547Z" fill="#DD2237"/>
<path id="Vector_4" d="M80.3621 11.0055C67.4319 11.0055 54.4893 10.9931 41.5591 11.0055C41.5591 24.2482 41.5591 37.4783 41.5591 50.7209C54.4893 50.7209 67.4319 50.7209 80.3621 50.7209C80.3621 37.4908 80.3621 24.2482 80.3621 11.0055ZM57.5324 25.6683C57.7188 26.6027 58.5634 27.2007 59.3583 27.5993C61.1966 28.5087 63.2336 28.8949 65.0471 29.8417C66.8481 30.7137 68.5622 32.0716 69.2702 34.0151C69.9658 36.0208 69.7795 38.4376 68.4256 40.1318C67.2208 41.6268 65.3576 42.4365 63.4945 42.748C60.9109 43.1591 58.1783 42.9722 55.7687 41.8884C54.3651 41.2655 53.0733 40.2938 52.266 38.9608C51.5207 37.7773 51.1978 36.382 51.1854 34.9992C53.0609 34.9992 54.9489 34.9992 56.8245 34.9992C56.8866 35.9211 57.0108 36.9302 57.6815 37.6403C58.5013 38.5248 59.8055 38.6618 60.9358 38.6992C61.9667 38.7116 63.1715 38.4251 63.7305 37.4783C64.2273 36.4817 64.0037 35.0989 63.0722 34.4386C61.8425 33.5417 60.352 33.1679 58.9484 32.6447C56.7748 31.8474 54.5266 30.8757 53.0733 28.9821C51.4835 26.9266 51.4835 23.7748 53.1727 21.7815C54.7874 19.8506 57.3461 19.0408 59.7682 18.8539C62.4139 18.6422 65.2955 19.1654 67.3574 20.9468C68.8479 22.2175 69.6553 24.161 69.6677 26.1044C67.7921 26.1168 65.9041 26.1044 64.0286 26.1168C63.9665 25.4192 63.8547 24.6593 63.3454 24.1236C62.4014 23.0398 60.7991 22.9401 59.4825 23.2515C58.4143 23.4633 57.3586 24.4724 57.5324 25.6683Z" fill="#2E50BC"/>
</g>
<g id="SSA White">
<g id="Subtract">
<path fill-rule="evenodd" clip-rule="evenodd" d="M107.356 39.8956C107.182 39.3341 107.008 38.7734 106.832 38.2164H99.1313C98.9264 38.8547 98.7308 39.4952 98.5355 40.1351C98.2809 40.969 98.0267 41.8017 97.7526 42.6265C96.6029 42.6123 95.4532 42.6143 94.3036 42.6163C93.4412 42.6179 92.5784 42.6194 91.716 42.614C93.0088 39.0987 94.2915 35.5808 95.5744 32.0627L95.5763 32.0576C97.1523 27.7353 98.7286 23.4126 100.324 19.0938C101.206 19.1 102.091 19.1 102.977 19.1C103.864 19.1 104.752 19.1 105.64 19.1062C107.551 24.3268 109.474 29.5474 111.397 34.7679L111.401 34.7792C112.363 37.3908 113.324 40.0024 114.285 42.614H108.211C107.919 41.7138 107.637 40.8031 107.356 39.8956ZM102.932 25.7792C102.418 27.5814 101.861 29.3726 101.303 31.1638C101.025 32.0593 100.746 32.9549 100.472 33.8518C101.582 33.8435 102.691 33.8463 103.801 33.849C104.355 33.8504 104.911 33.8518 105.466 33.8518C105.26 33.0698 105.015 32.2966 104.769 31.5217C104.6 30.9881 104.43 30.4537 104.273 29.9151C104.089 29.3748 103.927 28.8288 103.766 28.2845C103.515 27.4362 103.265 26.5909 102.932 25.7792Z" fill="white"/>
<path fill-rule="evenodd" clip-rule="evenodd" d="M107.356 39.8956C107.182 39.3341 107.008 38.7734 106.832 38.2164H99.1313C98.9264 38.8547 98.7308 39.4952 98.5355 40.1351C98.2809 40.969 98.0267 41.8017 97.7526 42.6265C96.6029 42.6123 95.4532 42.6143 94.3036 42.6163C93.4412 42.6179 92.5784 42.6194 91.716 42.614C93.0088 39.0987 94.2915 35.5808 95.5744 32.0627L95.5763 32.0576C97.1523 27.7353 98.7286 23.4126 100.324 19.0938C101.206 19.1 102.091 19.1 102.977 19.1C103.864 19.1 104.752 19.1 105.64 19.1062C107.551 24.3268 109.474 29.5474 111.397 34.7679L111.401 34.7792C112.363 37.3908 113.324 40.0024 114.285 42.614H108.211C107.919 41.7138 107.637 40.8031 107.356 39.8956ZM102.932 25.7792C102.418 27.5814 101.861 29.3726 101.303 31.1638C101.025 32.0593 100.746 32.9549 100.472 33.8518C101.582 33.8435 102.691 33.8463 103.801 33.849C104.355 33.8504 104.911 33.8518 105.466 33.8518C105.26 33.0698 105.015 32.2966 104.769 31.5217C104.6 30.9881 104.43 30.4537 104.273 29.9151C104.089 29.3748 103.927 28.8288 103.766 28.2845C103.515 27.4362 103.265 26.5909 102.932 25.7792Z" fill="white"/>
<path fill-rule="evenodd" clip-rule="evenodd" d="M107.356 39.8956C107.182 39.3341 107.008 38.7734 106.832 38.2164H99.1313C98.9264 38.8547 98.7308 39.4952 98.5355 40.1351C98.2809 40.969 98.0267 41.8017 97.7526 42.6265C96.6029 42.6123 95.4532 42.6143 94.3036 42.6163C93.4412 42.6179 92.5784 42.6194 91.716 42.614C93.0088 39.0987 94.2915 35.5808 95.5744 32.0627L95.5763 32.0576C97.1523 27.7353 98.7286 23.4126 100.324 19.0938C101.206 19.1 102.091 19.1 102.977 19.1C103.864 19.1 104.752 19.1 105.64 19.1062C107.551 24.3268 109.474 29.5474 111.397 34.7679L111.401 34.7792C112.363 37.3908 113.324 40.0024 114.285 42.614H108.211C107.919 41.7138 107.637 40.8031 107.356 39.8956ZM102.932 25.7792C102.418 27.5814 101.861 29.3726 101.303 31.1638C101.025 32.0593 100.746 32.9549 100.472 33.8518C101.582 33.8435 102.691 33.8463 103.801 33.849C104.355 33.8504 104.911 33.8518 105.466 33.8518C105.26 33.0698 105.015 32.2966 104.769 31.5217C104.6 30.9881 104.43 30.4537 104.273 29.9151C104.089 29.3748 103.927 28.8288 103.766 28.2845C103.515 27.4362 103.265 26.5909 102.932 25.7792Z" fill="white"/>
</g>
<path id="Subtract_2" d="M18.8958 32.9382C19.99 33.3165 21.085 33.695 22.0478 34.3557C23.0291 35.016 23.3023 36.4237 22.7434 37.4453C22.1969 38.3796 21.0293 38.6786 20.0108 38.6661C18.8929 38.6537 17.6632 38.5166 16.8062 37.7318C16.0734 37.0217 15.8995 35.9628 15.8498 34.9786C14.5907 34.9869 13.3371 34.9842 12.0853 34.9814C11.4601 34.98 10.8354 34.9786 10.2107 34.9786C10.1486 37.1961 11.1423 39.4385 12.9185 40.7715C14.881 42.2664 17.39 42.9267 19.8369 42.9267C22.1348 42.9516 24.5693 42.553 26.4324 41.1079C27.836 40.0489 28.6806 38.3049 28.6433 36.5483C28.7551 34.9039 28.1962 33.2345 27.0783 32.0137C25.6375 30.3817 23.588 29.5097 21.5758 28.7996C21.3195 28.7084 21.0606 28.6208 20.8011 28.533C19.6772 28.1526 18.5427 27.7686 17.5639 27.0804C17.0049 26.6568 16.4833 26.0339 16.5578 25.2865C16.6075 24.0905 17.7626 23.2808 18.8557 23.1313C20.0481 22.9195 21.4516 23.0565 22.3211 23.9909C22.8552 24.5266 23.0539 25.3114 23.0415 26.0464C24.1133 26.0606 25.185 26.0586 26.2568 26.0566C27.0606 26.055 27.8644 26.0535 28.6682 26.0589C28.7179 24.2525 27.9975 22.4336 26.6808 21.1754C25.0164 19.531 22.644 18.8583 20.3586 18.7711C18.1973 18.7212 15.9616 19.0825 14.0736 20.1788C12.7446 20.9387 11.6391 22.1347 11.1795 23.6047C10.6206 25.436 10.9559 27.5538 12.1856 29.0487C13.4898 30.6932 15.4399 31.6399 17.3651 32.375C17.866 32.5823 18.3808 32.7602 18.8958 32.9382Z" fill="white"/>
<g id="Subtract_3">
<path d="M59.3589 27.5992C58.5639 27.2006 57.7193 26.6026 57.533 25.6683C57.3591 24.4723 58.4149 23.4633 59.4831 23.2515C60.7997 22.94 62.402 23.0397 63.346 24.1235C63.8552 24.6592 63.967 25.4191 64.0291 26.1168C64.9669 26.1105 65.9078 26.1105 66.8487 26.1105C67.7896 26.1105 68.7305 26.1105 69.6682 26.1043C69.6558 24.1609 68.8485 22.2175 67.3579 20.9468C65.2961 19.1653 62.4144 18.6421 59.7688 18.8539C57.3467 19.0407 54.788 19.8505 53.1733 21.7815C51.484 23.7747 51.484 26.9265 53.0739 28.9821C54.5271 30.8756 56.7753 31.8473 58.949 32.6446C59.2668 32.7631 59.589 32.8739 59.9117 32.9849C61.0141 33.3639 62.1215 33.7447 63.0727 34.4386C64.0043 35.0988 64.2279 36.4816 63.731 37.4783C63.1721 38.4251 61.9673 38.7116 60.9363 38.6991C59.806 38.6618 58.5018 38.5247 57.682 37.6402C57.0113 36.9301 56.8871 35.921 56.825 34.9992H51.1859C51.1983 36.382 51.5213 37.7773 52.2665 38.9607C53.0739 40.2937 54.3657 41.2654 55.7692 41.8883C58.1789 42.9721 60.9115 43.159 63.495 42.7479C65.3582 42.4365 67.2213 41.6267 68.4261 40.1318C69.78 38.4375 69.9663 36.0207 69.2708 34.015C68.5628 32.0716 66.8487 30.7137 65.0477 29.8416C64.1071 29.3506 63.1064 29.0103 62.1044 28.6696C61.1746 28.3535 60.2437 28.037 59.3589 27.5992Z" fill="white"/>
<path d="M59.3589 27.5992C58.5639 27.2006 57.7193 26.6026 57.533 25.6683C57.3591 24.4723 58.4149 23.4633 59.4831 23.2515C60.7997 22.94 62.402 23.0397 63.346 24.1235C63.8552 24.6592 63.967 25.4191 64.0291 26.1168C64.9669 26.1105 65.9078 26.1105 66.8487 26.1105C67.7896 26.1105 68.7305 26.1105 69.6682 26.1043C69.6558 24.1609 68.8485 22.2175 67.3579 20.9468C65.2961 19.1653 62.4144 18.6421 59.7688 18.8539C57.3467 19.0407 54.788 19.8505 53.1733 21.7815C51.484 23.7747 51.484 26.9265 53.0739 28.9821C54.5271 30.8756 56.7753 31.8473 58.949 32.6446C59.2668 32.7631 59.589 32.8739 59.9117 32.9849C61.0141 33.3639 62.1215 33.7447 63.0727 34.4386C64.0043 35.0988 64.2279 36.4816 63.731 37.4783C63.1721 38.4251 61.9673 38.7116 60.9363 38.6991C59.806 38.6618 58.5018 38.5247 57.682 37.6402C57.0113 36.9301 56.8871 35.921 56.825 34.9992H51.1859C51.1983 36.382 51.5213 37.7773 52.2665 38.9607C53.0739 40.2937 54.3657 41.2654 55.7692 41.8883C58.1789 42.9721 60.9115 43.159 63.495 42.7479C65.3582 42.4365 67.2213 41.6267 68.4261 40.1318C69.78 38.4375 69.9663 36.0207 69.2708 34.015C68.5628 32.0716 66.8487 30.7137 65.0477 29.8416C64.1071 29.3506 63.1064 29.0103 62.1044 28.6696C61.1746 28.3535 60.2437 28.037 59.3589 27.5992Z" fill="white"/>
<path d="M59.3589 27.5992C58.5639 27.2006 57.7193 26.6026 57.533 25.6683C57.3591 24.4723 58.4149 23.4633 59.4831 23.2515C60.7997 22.94 62.402 23.0397 63.346 24.1235C63.8552 24.6592 63.967 25.4191 64.0291 26.1168C64.9669 26.1105 65.9078 26.1105 66.8487 26.1105C67.7896 26.1105 68.7305 26.1105 69.6682 26.1043C69.6558 24.1609 68.8485 22.2175 67.3579 20.9468C65.2961 19.1653 62.4144 18.6421 59.7688 18.8539C57.3467 19.0407 54.788 19.8505 53.1733 21.7815C51.484 23.7747 51.484 26.9265 53.0739 28.9821C54.5271 30.8756 56.7753 31.8473 58.949 32.6446C59.2668 32.7631 59.589 32.8739 59.9117 32.9849C61.0141 33.3639 62.1215 33.7447 63.0727 34.4386C64.0043 35.0988 64.2279 36.4816 63.731 37.4783C63.1721 38.4251 61.9673 38.7116 60.9363 38.6991C59.806 38.6618 58.5018 38.5247 57.682 37.6402C57.0113 36.9301 56.8871 35.921 56.825 34.9992H51.1859C51.1983 36.382 51.5213 37.7773 52.2665 38.9607C53.0739 40.2937 54.3657 41.2654 55.7692 41.8883C58.1789 42.9721 60.9115 43.159 63.495 42.7479C65.3582 42.4365 67.2213 41.6267 68.4261 40.1318C69.78 38.4375 69.9663 36.0207 69.2708 34.015C68.5628 32.0716 66.8487 30.7137 65.0477 29.8416C64.1071 29.3506 63.1064 29.0103 62.1044 28.6696C61.1746 28.3535 60.2437 28.037 59.3589 27.5992Z" fill="white"/>
</g>
</g>
<g id="Main Text">
<path id="Vector_5" d="M120.521 118.478H109.818V66.1289H133.9C139.252 66.1289 143.6 67.8463 146.61 70.9374C149.62 74.0286 151.292 78.1501 150.958 82.9585C150.958 87.767 149.286 91.545 146.275 94.9797C143.265 98.0708 138.917 99.7881 133.566 99.7881H120.521V118.478ZM132.228 90.1711C134.569 90.1711 136.241 89.4843 137.579 88.1104C138.917 86.7366 139.586 85.0193 139.586 82.9585C139.586 80.8978 138.917 79.1805 137.579 77.8066C136.241 76.4328 134.235 75.7459 132.228 75.7459H120.521V89.8277L132.228 90.1711Z" fill="#202023"/>
<path id="Vector_6" d="M85.5157 118.466H74.539V76.2179L59.4852 75.9027V66.1289H100.858L100.883 76.2179H85.8293L85.5157 118.466Z" fill="#202023"/>
<path id="Vector_7" d="M29.6656 119.029C21.1897 119.029 14.4796 116.715 8.4758 111.755C2.82518 106.796 0 100.514 0 92.5789C0 84.6439 2.82518 78.3621 8.4758 73.4027C13.7733 68.4433 20.8365 66.1289 29.6656 66.1289C39.9074 66.1289 47.677 70.0965 52.6212 78.6927L42.3796 83.3215C40.967 81.0071 39.2012 79.3539 37.0822 78.0314C34.61 76.7089 32.1378 76.0477 29.3125 76.0477C24.3682 76.0477 20.1303 77.7008 16.9518 80.6764C13.7733 83.9826 12.0074 87.9502 12.0074 92.9096C12.0074 97.8689 13.4202 101.836 16.9518 105.143C20.1303 108.449 24.3682 109.771 29.3125 109.771C32.1378 109.771 34.61 109.11 37.0822 107.788C39.5543 106.465 41.3201 104.481 42.3796 102.498L52.6212 107.126C47.677 114.731 39.9074 119.029 29.6656 119.029Z" fill="#202023"/>
</g>
</g>
<defs>
<clipPath id="clip0_3064_10401">
<rect width="151" height="132" fill="white"/>
</clipPath>
</defs>
</svg>
