<svg width="15" height="16" viewBox="0 0 15 16" fill="none" xmlns="http://www.w3.org/2000/svg">
<g id="Group 237748">
<path id="Vector" d="M7.5 15.5C11.6421 15.5 15 12.1421 15 8C15 3.85786 11.6421 0.5 7.5 0.5C3.35786 0.5 0 3.85786 0 8C0 12.1421 3.35786 15.5 7.5 15.5Z" fill="#F1D33D"/>
<path id="Vector_2" d="M7.29167 15.0837C9.22554 15.0837 11.0802 14.3154 12.4477 12.948C13.8151 11.5805 14.5833 9.72586 14.5833 7.79199H0C0 9.72586 0.768227 11.5805 2.13568 12.948C2.81277 13.6251 3.6166 14.1622 4.50127 14.5286C5.38593 14.8951 6.33411 15.0837 7.29167 15.0837Z" fill="#E7A324"/>
<path id="Vector_3" d="M7.29177 14.607C11.0039 14.607 14.0132 11.5977 14.0132 7.88552C14.0132 4.17336 11.0039 1.16406 7.29177 1.16406C3.57961 1.16406 0.570312 4.17336 0.570312 7.88552C0.570312 11.5977 3.57961 14.607 7.29177 14.607Z" fill="url(#paint0_linear_1495_11262)"/>
<path id="Vector_4" d="M7.29296 14.605C5.52001 14.6047 3.81904 13.9037 2.5606 12.6548C1.30217 11.406 0.588264 9.71039 0.574413 7.9375V7.99365C0.560814 9.79016 1.26067 11.5186 2.52032 12.7996C3.77997 14.0806 5.49647 14.8094 7.29296 14.8259C9.08982 14.8101 10.807 14.0818 12.0672 12.8009C13.3275 11.52 14.0278 9.79126 14.0144 7.99438C14.0144 7.97542 14.0144 7.95719 14.0144 7.93823C14.0004 9.7115 13.286 11.4073 12.0269 12.6561C10.7679 13.9049 9.06628 14.6054 7.29296 14.605Z" fill="#D38E26"/>
<path id="Vector_5" d="M7.29167 13.3333C10.3522 13.3333 12.8333 10.8522 12.8333 7.79167C12.8333 4.73109 10.3522 2.25 7.29167 2.25C4.23109 2.25 1.75 4.73109 1.75 7.79167C1.75 10.8522 4.23109 13.3333 7.29167 13.3333Z" fill="#F9EE60"/>
<path id="Vector_6" d="M7.29167 2.25C5.82193 2.25 4.41238 2.83385 3.37312 3.87312C2.33385 4.91238 1.75 6.32192 1.75 7.79167H12.8333C12.8333 6.32192 12.2495 4.91238 11.2102 3.87312C10.171 2.83385 8.76141 2.25 7.29167 2.25Z" fill="#E3A22C"/>
<path id="Vector_7" d="M7.29167 12.8958C10.1106 12.8958 12.3958 10.6106 12.3958 7.79167C12.3958 4.97271 10.1106 2.6875 7.29167 2.6875C4.47271 2.6875 2.1875 4.97271 2.1875 7.79167C2.1875 10.6106 4.47271 12.8958 7.29167 12.8958Z" fill="url(#paint1_linear_1495_11262)"/>
<path id="Vector_8" d="M4.48161 7.00095L3.64453 7.80012L4.48161 8.6022L5.32161 7.80085L4.48161 7.00095ZM7.28234 9.67553L5.88672 8.34262L5.03651 9.12501L7.28234 11.2688L9.52818 9.12501L8.67578 8.34262L7.28234 9.67553ZM7.28234 5.90866L8.67578 7.24158L9.52526 6.45918L7.27943 4.31543L5.03359 6.45918L5.8838 7.24158L7.28234 5.90866ZM10.0991 7.00824L9.25912 7.80668L10.0962 8.60876L10.9362 7.80741L10.0991 7.00824ZM7.30203 8.59418L8.13911 7.7921L7.30203 6.99001L6.46495 7.7921L7.30203 8.59418Z" fill="white"/>
</g>
<defs>
<linearGradient id="paint0_linear_1495_11262" x1="7.29177" y1="1.10719" x2="7.29177" y2="14.6267" gradientUnits="userSpaceOnUse">
<stop stop-color="#FAEE5E"/>
<stop offset="1" stop-color="#EDC12D"/>
</linearGradient>
<linearGradient id="paint1_linear_1495_11262" x1="7.29167" y1="2.63354" x2="7.29167" y2="12.8608" gradientUnits="userSpaceOnUse">
<stop stop-color="#EFC938"/>
<stop offset="1" stop-color="#F1B62E"/>
</linearGradient>
</defs>
</svg>
