<svg width="20" height="21" viewBox="0 0 20 21" fill="none" xmlns="http://www.w3.org/2000/svg">
<g id="ui icons">
<path id="Vector" fill-rule="evenodd" clip-rule="evenodd" d="M1.71883 5.52713C1.82385 5.04779 2.08201 4.61981 2.45104 4.31327C2.82007 4.00673 3.27809 3.83981 3.75008 3.83984H16.2501C16.7221 3.83981 17.1801 4.00673 17.5491 4.31327C17.9181 4.61981 18.1763 5.04779 18.2813 5.52713L10.0001 10.7995L1.71883 5.52713ZM1.66675 6.76628V14.4746L7.71154 10.6139L1.66675 6.76628ZM8.70946 11.2509L1.86571 15.6204C2.0348 15.9918 2.30167 16.3056 2.63527 16.5252C2.96887 16.7447 3.35547 16.8611 3.75008 16.8607H16.2501C16.6446 16.8608 17.0311 16.7442 17.3645 16.5244C17.6979 16.3047 17.9646 15.9908 18.1334 15.6194L11.2897 11.2498L10.0001 12.0712L8.70946 11.2498V11.2509ZM12.2886 10.615L18.3334 14.4746V6.76628L12.2886 10.6139V10.615Z" fill="#808183"/>
</g>
</svg>
