<svg width="60" height="60" viewBox="0 0 60 60" fill="none" xmlns="http://www.w3.org/2000/svg">
<g id="face-id (2) 1">
<g id="essentials/security/face-id">
<path id="Fill-23" fill-rule="evenodd" clip-rule="evenodd" d="M8.74998 22.5098C8.05998 22.5098 7.49998 21.9498 7.49998 21.2598V16.2598C7.49998 11.4348 11.425 7.50977 16.25 7.50977H21.25C21.94 7.50977 22.5 8.06977 22.5 8.75977C22.5 9.44977 21.94 10.0098 21.25 10.0098H16.25C12.805 10.0098 9.99998 12.8123 9.99998 16.2598V21.2598C9.99998 21.9498 9.43998 22.5098 8.74998 22.5098ZM48.75 22.5098C48.06 22.5098 47.5 21.9498 47.5 21.2598V16.2598C47.5 12.8123 44.695 10.0098 41.25 10.0098H36.25C35.56 10.0098 35 9.44977 35 8.75977C35 8.06977 35.56 7.50977 36.25 7.50977H41.25C46.075 7.50977 50 11.4348 50 16.2598V21.2598C50 21.9498 49.44 22.5098 48.75 22.5098ZM21.25 27.5098C20.56 27.5098 20 26.9498 20 26.2598V21.2598C20 20.5698 20.56 20.0098 21.25 20.0098C21.94 20.0098 22.5 20.5698 22.5 21.2598V26.2598C22.5 26.9498 21.94 27.5098 21.25 27.5098ZM36.25 27.5098C35.56 27.5098 35 26.9498 35 26.2598V21.2598C35 20.5698 35.56 20.0098 36.25 20.0098C36.94 20.0098 37.5 20.5698 37.5 21.2598V26.2598C37.5 26.9498 36.94 27.5098 36.25 27.5098ZM26.25 32.5098C25.56 32.5098 25 31.9498 25 31.2598C25 30.5698 25.56 30.0098 26.25 30.0098C26.94 30.0098 27.5 29.4473 27.5 28.7598V21.2598C27.5 20.5698 28.06 20.0098 28.75 20.0098C29.44 20.0098 30 20.5698 30 21.2598V28.7598C30 30.8273 28.3175 32.5098 26.25 32.5098ZM28.75 40.0098C25.92 40.0098 23.52 39.0448 21.615 37.1448C21.1275 36.6548 21.1275 35.8648 21.615 35.3748C22.105 34.8873 22.895 34.8873 23.385 35.3748C24.82 36.8123 26.575 37.5098 28.75 37.5098C30.925 37.5098 32.68 36.8123 34.115 35.3748C34.605 34.8873 35.395 34.8873 35.885 35.3748C36.3725 35.8648 36.3725 36.6548 35.885 37.1448C33.98 39.0448 31.58 40.0098 28.75 40.0098ZM21.25 50.0098H16.25C11.425 50.0098 7.49998 46.0848 7.49998 41.2598V36.2598C7.49998 35.5698 8.05998 35.0098 8.74998 35.0098C9.43998 35.0098 9.99998 35.5698 9.99998 36.2598V41.2598C9.99998 44.7073 12.805 47.5098 16.25 47.5098H21.25C21.94 47.5098 22.5 48.0698 22.5 48.7598C22.5 49.4498 21.94 50.0098 21.25 50.0098ZM41.25 50.0098H36.25C35.56 50.0098 35 49.4498 35 48.7598C35 48.0698 35.56 47.5098 36.25 47.5098H41.25C44.695 47.5098 47.5 44.7073 47.5 41.2598V36.2598C47.5 35.5698 48.06 35.0098 48.75 35.0098C49.44 35.0098 50 35.5698 50 36.2598V41.2598C50 46.0848 46.075 50.0098 41.25 50.0098Z" fill="#808183"/>
</g>
</g>
</svg>
