<svg width="20" height="21" viewBox="0 0 20 21" fill="none" xmlns="http://www.w3.org/2000/svg">
<g id="padlock (1) 1" clip-path="url(#clip0_1942_200)">
<path id="Vector" d="M15.625 8.41602H15V5.91602C15 3.15852 12.7575 0.916016 10 0.916016C7.2425 0.916016 5 3.15852 5 5.91602V8.41602H4.375C3.34167 8.41602 2.5 9.25685 2.5 10.291V19.041C2.5 20.0752 3.34167 20.916 4.375 20.916H15.625C16.6583 20.916 17.5 20.0752 17.5 19.041V10.291C17.5 9.25685 16.6583 8.41602 15.625 8.41602ZM6.66667 5.91602C6.66667 4.07768 8.16167 2.58268 10 2.58268C11.8383 2.58268 13.3333 4.07768 13.3333 5.91602V8.41602H6.66667V5.91602ZM10.8333 14.851V16.7493C10.8333 17.2093 10.4608 17.5827 10 17.5827C9.53917 17.5827 9.16667 17.2093 9.16667 16.7493V14.851C8.67083 14.5618 8.33333 14.0302 8.33333 13.416C8.33333 12.4968 9.08083 11.7493 10 11.7493C10.9192 11.7493 11.6667 12.4968 11.6667 13.416C11.6667 14.0302 11.3292 14.5618 10.8333 14.851Z" fill="#808183"/>
</g>
<defs>
<clipPath id="clip0_1942_200">
<rect width="20" height="20" fill="white" transform="translate(0 0.916016)"/>
</clipPath>
</defs>
</svg>
