<svg width="37" height="32" viewBox="0 0 37 32" fill="none" xmlns="http://www.w3.org/2000/svg">
<g clip-path="url(#clip0_3062_16162)">
<path d="M25.2215 6.25C25.0328 6.90535 24.8198 7.55467 24.6189 8.207C25.0267 8.20398 25.4346 8.207 25.8424 8.207C25.7572 7.88688 25.6446 7.57279 25.5502 7.25266C25.4346 6.91744 25.3554 6.57315 25.2215 6.25Z" fill="#2E50BC"/>
<path d="M29.8752 2.66895C26.71 2.67197 23.5447 2.66593 20.3794 2.67197C20.3794 5.87928 20.3794 9.08961 20.3794 12.2969C23.5447 12.2999 26.71 12.2969 29.8752 12.2969C29.8752 9.08961 29.8752 5.87928 29.8752 2.66895ZM26.5152 10.3309C26.3995 9.97751 26.2899 9.61812 26.1773 9.26477C25.5473 9.26477 24.9204 9.26477 24.2903 9.26477C24.1747 9.62114 24.0712 9.98053 23.9525 10.3339C23.4595 10.3278 22.9664 10.3339 22.4734 10.3309C23.1795 8.43123 23.8734 6.52859 24.5825 4.62897C25.0147 4.63199 25.4499 4.62897 25.8852 4.63199C26.5882 6.53161 27.2974 8.43123 28.0035 10.3309C27.5043 10.3309 27.0113 10.3309 26.5152 10.3309Z" fill="#2E50BC"/>
<path d="M9.49888 12.2969C9.49888 9.08659 9.49888 5.87626 9.49888 2.66895C6.3336 2.66895 3.16528 2.66895 0 2.66895C0 5.87928 0 9.08659 0 12.2969C3.16528 12.2999 6.33056 12.2969 9.49888 12.2969ZM5.40228 8.32855C5.05532 8.09299 4.63835 8.0054 4.25487 7.84836C3.78312 7.67018 3.30528 7.44065 2.98571 7.042C2.6844 6.67959 2.60222 6.16618 2.73918 5.72223C2.85179 5.36587 3.12267 5.07594 3.44833 4.89172C3.91095 4.62595 4.45878 4.53837 4.98836 4.55045C5.54837 4.57159 6.12969 4.73467 6.53752 5.13332C6.86013 5.43835 7.03666 5.87928 7.02449 6.31719C6.56491 6.31417 6.10534 6.32021 5.64576 6.31417C5.64881 6.13598 5.60011 5.94572 5.46924 5.81586C5.25619 5.58935 4.91227 5.55613 4.62009 5.60747C4.35226 5.64371 4.06921 5.84002 4.05704 6.12994C4.03877 6.31115 4.1666 6.46215 4.30356 6.56483C4.59879 6.7702 4.95184 6.86382 5.28662 6.9816C5.77968 7.15375 6.28186 7.36515 6.63491 7.76078C6.90883 8.05675 7.04579 8.46143 7.0184 8.86008C7.02753 9.28591 6.82057 9.70872 6.47665 9.96543C6.02012 10.3158 5.42358 10.4124 4.86053 10.4064C4.26095 10.4064 3.64616 10.2463 3.16528 9.88389C2.73005 9.56074 2.48657 9.01713 2.50179 8.47956C2.96136 8.47956 3.42094 8.48257 3.88355 8.47956C3.89573 8.71814 3.93834 8.97485 4.11791 9.14699C4.32791 9.33725 4.62922 9.37048 4.90314 9.3735C5.15271 9.37652 5.4388 9.30403 5.57272 9.07753C5.70968 8.82988 5.64272 8.48862 5.40228 8.32855Z" fill="#DD2237"/>
<path d="M19.6914 2.66833C16.523 2.66833 13.3517 2.66531 10.1833 2.66833C10.1833 5.87867 10.1833 9.08598 10.1833 12.2963C13.3517 12.2963 16.523 12.2963 19.6914 12.2963C19.6914 9.089 19.6914 5.87867 19.6914 2.66833ZM14.0973 6.22295C14.143 6.44946 14.35 6.59442 14.5447 6.69107C14.9952 6.91153 15.4943 7.00515 15.9387 7.23468C16.38 7.44608 16.8 7.77527 16.9735 8.2464C17.1439 8.73263 17.0983 9.31852 16.7665 9.72925C16.4713 10.0917 16.0148 10.288 15.5582 10.3635C14.9252 10.4631 14.2556 10.4178 13.6652 10.1551C13.3212 10.0041 13.0047 9.76851 12.8069 9.44537C12.6243 9.15846 12.5451 8.82021 12.5421 8.48499C13.0017 8.48499 13.4643 8.48499 13.9239 8.48499C13.9391 8.70847 13.9695 8.9531 14.1339 9.12524C14.3347 9.33967 14.6543 9.37289 14.9313 9.38195C15.1839 9.38497 15.4791 9.31551 15.6161 9.08598C15.7378 8.84437 15.683 8.50915 15.4548 8.34908C15.1534 8.13164 14.7882 8.04104 14.4443 7.91419C13.9117 7.72091 13.3608 7.48534 13.0047 7.02629C12.6151 6.52798 12.6151 5.7639 13.0291 5.28069C13.4247 4.81258 14.0517 4.61628 14.6452 4.57098C15.2934 4.51964 15.9995 4.64648 16.5048 5.07835C16.87 5.3864 17.0678 5.85753 17.0709 6.32866C16.6113 6.33168 16.1487 6.32866 15.6891 6.33168C15.6739 6.16255 15.6465 5.97833 15.5217 5.84847C15.2904 5.58572 14.8978 5.56156 14.5752 5.63706C14.3134 5.6884 14.0547 5.93303 14.0973 6.22295Z" fill="#2E50BC"/>
<path fill-rule="evenodd" clip-rule="evenodd" d="M26.3057 9.67178C26.263 9.53566 26.2204 9.39974 26.1774 9.26471H24.2904C24.2402 9.41943 24.1922 9.57472 24.1444 9.72984C24.082 9.932 24.0197 10.1339 23.9525 10.3338C23.6708 10.3304 23.3891 10.3309 23.1074 10.3313C22.8961 10.3317 22.6847 10.3321 22.4734 10.3308C22.7902 9.47858 23.1045 8.62577 23.4188 7.77289L23.4193 7.77165C23.8055 6.72383 24.1917 5.67591 24.5826 4.62891C24.7987 4.63042 25.0155 4.63042 25.2327 4.63042C25.45 4.63042 25.6676 4.63042 25.8852 4.63193C26.3536 5.89752 26.8247 7.16311 27.2958 8.42871L27.2968 8.43144C27.5325 9.06456 27.7682 9.69768 28.0035 10.3308H26.5152C26.4438 10.1125 26.3746 9.89178 26.3057 9.67178ZM25.2216 6.24961C25.0958 6.68652 24.9592 7.12074 24.8226 7.55497C24.7543 7.77207 24.686 7.98918 24.619 8.20662C24.8909 8.2046 25.1627 8.20527 25.4345 8.20594C25.5705 8.20628 25.7066 8.20662 25.8425 8.20662C25.7921 8.01704 25.732 7.82959 25.6718 7.64174C25.6303 7.51238 25.5888 7.38283 25.5503 7.25227C25.5051 7.12129 25.4655 6.98892 25.426 6.85697C25.3645 6.65133 25.3032 6.44639 25.2216 6.24961Z" fill="white"/>
<path fill-rule="evenodd" clip-rule="evenodd" d="M26.3057 9.67178C26.263 9.53566 26.2204 9.39974 26.1774 9.26471H24.2904C24.2402 9.41943 24.1922 9.57472 24.1444 9.72984C24.082 9.932 24.0197 10.1339 23.9525 10.3338C23.6708 10.3304 23.3891 10.3309 23.1074 10.3313C22.8961 10.3317 22.6847 10.3321 22.4734 10.3308C22.7902 9.47858 23.1045 8.62577 23.4188 7.77289L23.4193 7.77165C23.8055 6.72383 24.1917 5.67591 24.5826 4.62891C24.7987 4.63042 25.0155 4.63042 25.2327 4.63042C25.45 4.63042 25.6676 4.63042 25.8852 4.63193C26.3536 5.89752 26.8247 7.16311 27.2958 8.42871L27.2968 8.43144C27.5325 9.06456 27.7682 9.69768 28.0035 10.3308H26.5152C26.4438 10.1125 26.3746 9.89178 26.3057 9.67178ZM25.2216 6.24961C25.0958 6.68652 24.9592 7.12074 24.8226 7.55497C24.7543 7.77207 24.686 7.98918 24.619 8.20662C24.8909 8.2046 25.1627 8.20527 25.4345 8.20594C25.5705 8.20628 25.7066 8.20662 25.8425 8.20662C25.7921 8.01704 25.732 7.82959 25.6718 7.64174C25.6303 7.51238 25.5888 7.38283 25.5503 7.25227C25.5051 7.12129 25.4655 6.98892 25.426 6.85697C25.3645 6.65133 25.3032 6.44639 25.2216 6.24961Z" fill="white"/>
<path fill-rule="evenodd" clip-rule="evenodd" d="M26.3057 9.67178C26.263 9.53566 26.2204 9.39974 26.1774 9.26471H24.2904C24.2402 9.41943 24.1922 9.57472 24.1444 9.72984C24.082 9.932 24.0197 10.1339 23.9525 10.3338C23.6708 10.3304 23.3891 10.3309 23.1074 10.3313C22.8961 10.3317 22.6847 10.3321 22.4734 10.3308C22.7902 9.47858 23.1045 8.62577 23.4188 7.77289L23.4193 7.77165C23.8055 6.72383 24.1917 5.67591 24.5826 4.62891C24.7987 4.63042 25.0155 4.63042 25.2327 4.63042C25.45 4.63042 25.6676 4.63042 25.8852 4.63193C26.3536 5.89752 26.8247 7.16311 27.2958 8.42871L27.2968 8.43144C27.5325 9.06456 27.7682 9.69768 28.0035 10.3308H26.5152C26.4438 10.1125 26.3746 9.89178 26.3057 9.67178ZM25.2216 6.24961C25.0958 6.68652 24.9592 7.12074 24.8226 7.55497C24.7543 7.77207 24.686 7.98918 24.619 8.20662C24.8909 8.2046 25.1627 8.20527 25.4345 8.20594C25.5705 8.20628 25.7066 8.20662 25.8425 8.20662C25.7921 8.01704 25.732 7.82959 25.6718 7.64174C25.6303 7.51238 25.5888 7.38283 25.5503 7.25227C25.5051 7.12129 25.4655 6.98892 25.426 6.85697C25.3645 6.65133 25.3032 6.44639 25.2216 6.24961Z" fill="white"/>
<path d="M4.63003 7.98535C4.89816 8.07705 5.16646 8.16881 5.40239 8.32899C5.64282 8.48905 5.70978 8.83032 5.57282 9.07797C5.43891 9.30447 5.15282 9.37695 4.90325 9.37393C4.62933 9.37091 4.32802 9.33769 4.11801 9.14743C3.93844 8.97528 3.89583 8.71858 3.88366 8.47999C3.57514 8.48201 3.26796 8.48133 2.96124 8.48066C2.80805 8.48033 2.65497 8.47999 2.50189 8.47999C2.48668 9.01756 2.73016 9.56118 3.16539 9.88432C3.64626 10.2467 4.26106 10.4068 4.86064 10.4068C5.42369 10.4128 6.02022 10.3162 6.47675 9.96587C6.82067 9.70916 7.02763 9.28635 7.0185 8.86052C7.0459 8.46187 6.90894 8.05718 6.63502 7.76122C6.28197 7.36559 5.77978 7.15418 5.28673 6.98204C5.22392 6.95994 5.16047 6.9387 5.09688 6.9174C4.82151 6.8252 4.54351 6.73211 4.30367 6.56527C4.16671 6.46259 4.03888 6.31159 4.05714 6.13038C4.06932 5.84045 4.35237 5.64415 4.6202 5.60791C4.91238 5.55657 5.2563 5.58979 5.46934 5.81629C5.60021 5.94616 5.64891 6.13642 5.64587 6.3146C5.90848 6.31806 6.1711 6.31756 6.43372 6.31707C6.63068 6.3167 6.82763 6.31633 7.02459 6.31763C7.03677 5.87972 6.86024 5.43879 6.53763 5.13376C6.12979 4.73511 5.54848 4.57203 4.98846 4.55089C4.45889 4.53881 3.91105 4.62639 3.44843 4.89215C3.12278 5.07638 2.8519 5.3663 2.73929 5.72267C2.60233 6.16662 2.68451 6.68003 2.98582 7.04244C3.30539 7.44109 3.78322 7.67061 4.25497 7.8488C4.37769 7.89906 4.50384 7.9422 4.63003 7.98535Z" fill="white"/>
<path d="M14.5449 6.69138C14.3501 6.59474 14.1431 6.44977 14.0975 6.22327C14.0549 5.93334 14.3136 5.68871 14.5753 5.63737C14.8979 5.56187 15.2905 5.58603 15.5219 5.84878C15.6466 5.97864 15.674 6.16287 15.6893 6.33199C15.919 6.33048 16.1496 6.33048 16.3801 6.33048C16.6107 6.33048 16.8412 6.33048 17.071 6.32897C17.068 5.85784 16.8701 5.38671 16.5049 5.07866C15.9997 4.64679 15.2936 4.51995 14.6453 4.57129C14.0518 4.61659 13.4249 4.81289 13.0292 5.28101C12.6153 5.76422 12.6153 6.52829 13.0049 7.0266C13.3609 7.48566 13.9118 7.72122 14.4444 7.9145C14.5223 7.94322 14.6013 7.97009 14.6803 7.99698C14.9505 8.08888 15.2218 8.18118 15.4549 8.3494C15.6832 8.50946 15.7379 8.84469 15.6162 9.08629C15.4792 9.31582 15.184 9.38528 14.9314 9.38226C14.6544 9.3732 14.3349 9.33998 14.134 9.12555C13.9697 8.95341 13.9392 8.70878 13.924 8.4853H12.5422C12.5453 8.82053 12.6244 9.15877 12.807 9.44568C13.0049 9.76883 13.3214 10.0044 13.6653 10.1554C14.2557 10.4181 14.9253 10.4634 15.5584 10.3638C16.0149 10.2883 16.4714 10.092 16.7667 9.72957C17.0984 9.31884 17.1441 8.73294 16.9736 8.24671C16.8001 7.77558 16.3801 7.44639 15.9388 7.23499C15.7084 7.11594 15.4631 7.03346 15.2176 6.95087C14.9898 6.87422 14.7617 6.79749 14.5449 6.69138Z" fill="white"/>
<path d="M14.5449 6.69138C14.3501 6.59474 14.1431 6.44977 14.0975 6.22327C14.0549 5.93334 14.3136 5.68871 14.5753 5.63737C14.8979 5.56187 15.2905 5.58603 15.5219 5.84878C15.6466 5.97864 15.674 6.16287 15.6893 6.33199C15.919 6.33048 16.1496 6.33048 16.3801 6.33048C16.6107 6.33048 16.8412 6.33048 17.071 6.32897C17.068 5.85784 16.8701 5.38671 16.5049 5.07866C15.9997 4.64679 15.2936 4.51995 14.6453 4.57129C14.0518 4.61659 13.4249 4.81289 13.0292 5.28101C12.6153 5.76422 12.6153 6.52829 13.0049 7.0266C13.3609 7.48566 13.9118 7.72122 14.4444 7.9145C14.5223 7.94322 14.6013 7.97009 14.6803 7.99698C14.9505 8.08888 15.2218 8.18118 15.4549 8.3494C15.6832 8.50946 15.7379 8.84469 15.6162 9.08629C15.4792 9.31582 15.184 9.38528 14.9314 9.38226C14.6544 9.3732 14.3349 9.33998 14.134 9.12555C13.9697 8.95341 13.9392 8.70878 13.924 8.4853H12.5422C12.5453 8.82053 12.6244 9.15877 12.807 9.44568C13.0049 9.76883 13.3214 10.0044 13.6653 10.1554C14.2557 10.4181 14.9253 10.4634 15.5584 10.3638C16.0149 10.2883 16.4714 10.092 16.7667 9.72957C17.0984 9.31884 17.1441 8.73294 16.9736 8.24671C16.8001 7.77558 16.3801 7.44639 15.9388 7.23499C15.7084 7.11594 15.4631 7.03346 15.2176 6.95087C14.9898 6.87422 14.7617 6.79749 14.5449 6.69138Z" fill="white"/>
<path d="M14.5449 6.69138C14.3501 6.59474 14.1431 6.44977 14.0975 6.22327C14.0549 5.93334 14.3136 5.68871 14.5753 5.63737C14.8979 5.56187 15.2905 5.58603 15.5219 5.84878C15.6466 5.97864 15.674 6.16287 15.6893 6.33199C15.919 6.33048 16.1496 6.33048 16.3801 6.33048C16.6107 6.33048 16.8412 6.33048 17.071 6.32897C17.068 5.85784 16.8701 5.38671 16.5049 5.07866C15.9997 4.64679 15.2936 4.51995 14.6453 4.57129C14.0518 4.61659 13.4249 4.81289 13.0292 5.28101C12.6153 5.76422 12.6153 6.52829 13.0049 7.0266C13.3609 7.48566 13.9118 7.72122 14.4444 7.9145C14.5223 7.94322 14.6013 7.97009 14.6803 7.99698C14.9505 8.08888 15.2218 8.18118 15.4549 8.3494C15.6832 8.50946 15.7379 8.84469 15.6162 9.08629C15.4792 9.31582 15.184 9.38528 14.9314 9.38226C14.6544 9.3732 14.3349 9.33998 14.134 9.12555C13.9697 8.95341 13.9392 8.70878 13.924 8.4853H12.5422C12.5453 8.82053 12.6244 9.15877 12.807 9.44568C13.0049 9.76883 13.3214 10.0044 13.6653 10.1554C14.2557 10.4181 14.9253 10.4634 15.5584 10.3638C16.0149 10.2883 16.4714 10.092 16.7667 9.72957C17.0984 9.31884 17.1441 8.73294 16.9736 8.24671C16.8001 7.77558 16.3801 7.44639 15.9388 7.23499C15.7084 7.11594 15.4631 7.03346 15.2176 6.95087C14.9898 6.87422 14.7617 6.79749 14.5449 6.69138Z" fill="white"/>
<path d="M29.5318 28.7219H26.9092V16.0312H32.81C34.1213 16.0312 35.1867 16.4476 35.9243 17.197C36.6619 17.9463 37.0717 18.9455 36.9898 20.1112C36.9898 21.2768 36.58 22.1927 35.8424 23.0254C35.1048 23.7747 34.0393 24.191 32.7281 24.191H29.5318V28.7219ZM32.4002 21.8597C32.9739 21.8597 33.3837 21.6932 33.7115 21.3601C34.0393 21.0271 34.2033 20.6107 34.2033 20.1112C34.2033 19.6116 34.0393 19.1953 33.7115 18.8622C33.3837 18.5292 32.892 18.3626 32.4002 18.3626H29.5318V21.7764L32.4002 21.8597Z" fill="#202023"/>
<path d="M20.9543 28.719H18.2646V18.4771L14.5759 18.4007V16.0312H24.7135L24.7198 18.4771H21.0311L20.9543 28.719Z" fill="#202023"/>
<path d="M7.26906 28.8555C5.19217 28.8555 3.54798 28.2945 2.07685 27.0922C0.692262 25.8899 0 24.367 0 22.4434C0 20.5197 0.692262 18.9969 2.07685 17.7946C3.3749 16.5923 5.10564 16.0312 7.26906 16.0312C9.77862 16.0312 11.6824 16.9931 12.8939 19.077L10.3844 20.1991C10.0383 19.6381 9.60558 19.2373 9.08636 18.9167C8.4806 18.5961 7.87484 18.4358 7.18254 18.4358C5.97103 18.4358 4.93259 18.8365 4.15375 19.5579C3.37492 20.3594 2.94222 21.3213 2.94222 22.5235C2.94222 23.7258 3.28839 24.6876 4.15375 25.4891C4.93259 26.2907 5.97103 26.6113 7.18254 26.6113C7.87484 26.6113 8.4806 26.451 9.08636 26.1304C9.69212 25.8097 10.1248 25.3288 10.3844 24.8479L12.8939 25.97C11.6824 27.8135 9.77862 28.8555 7.26906 28.8555Z" fill="#202023"/>
</g>
<defs>
<clipPath id="clip0_3062_16162">
<rect width="37" height="32" fill="white"/>
</clipPath>
</defs>
</svg>
