<svg width="53" height="53" viewBox="0 0 53 53" fill="none" xmlns="http://www.w3.org/2000/svg">
<g id="empty-box 1">
<g id="Exp-3.-G">
<path id="Vector" fill-rule="evenodd" clip-rule="evenodd" d="M42.9165 29.6064H10.4165V44.6474C10.4165 45.3649 10.8869 45.9978 11.5743 46.2042C14.8398 47.1833 24.0226 49.9384 26.1993 50.5917C26.504 50.6827 26.829 50.6827 27.1337 50.5917C29.3104 49.9384 38.4933 47.1833 41.7587 46.2042C42.4461 45.9978 42.9165 45.3649 42.9165 44.6474C42.9165 40.8807 42.9165 29.6064 42.9165 29.6064Z" fill="url(#paint0_linear_1412_16049)"/>
<path id="Vector_2" fill-rule="evenodd" clip-rule="evenodd" d="M42.9162 29.6064H26.6662C26.6662 29.6064 26.5086 50.6599 26.6662 50.6599C26.8239 50.6599 26.9807 50.6372 27.1334 50.5917C29.3101 49.9384 38.493 47.1833 41.7584 46.2042C42.4458 45.9978 42.9162 45.3649 42.9162 44.6474C42.9162 40.8807 42.9162 29.6064 42.9162 29.6064Z" fill="url(#paint1_linear_1412_16049)"/>
<path id="Vector_3" fill-rule="evenodd" clip-rule="evenodd" d="M26.6665 34.8788L10.4165 29.6064C10.4165 29.6064 7.56703 33.8314 6.29303 35.7197C6.15003 35.9318 6.11509 36.1974 6.19797 36.4388C6.28165 36.6801 6.47259 36.8678 6.71553 36.9474C9.80222 37.95 18.9396 40.9189 21.3365 41.6973C21.6802 41.8094 22.0572 41.6802 22.2603 41.3804C23.3498 39.7724 26.6665 34.8788 26.6665 34.8788Z" fill="url(#paint2_linear_1412_16049)"/>
<path id="Vector_4" fill-rule="evenodd" clip-rule="evenodd" d="M42.9165 29.6064L26.6665 34.8788C26.6665 34.8788 29.9831 39.7724 31.0727 41.3804C31.2758 41.6802 31.6528 41.8094 31.9965 41.6973C34.3934 40.9189 43.5308 37.95 46.6174 36.9474C46.8604 36.8678 47.0513 36.6801 47.135 36.4388C47.2179 36.1974 47.1829 35.9318 47.0399 35.7197C45.7659 33.8314 42.9165 29.6064 42.9165 29.6064Z" fill="url(#paint3_linear_1412_16049)"/>
<path id="Vector_5" fill-rule="evenodd" clip-rule="evenodd" d="M22.7329 18.5311C22.5298 18.2329 22.1536 18.1037 21.8099 18.2158C19.4147 18.9934 10.2749 21.9631 7.18819 22.9665C6.94525 23.0453 6.7535 23.233 6.67062 23.4743C6.58775 23.7156 6.62268 23.9821 6.76568 24.1934C7.93893 25.9338 10.4162 29.6063 10.4162 29.6063L26.6662 24.3161C26.6662 24.3161 23.7477 20.0236 22.7329 18.5311Z" fill="url(#paint4_linear_1412_16049)"/>
<path id="Vector_6" fill-rule="evenodd" clip-rule="evenodd" d="M46.5671 24.1934C46.7101 23.9821 46.745 23.7156 46.6621 23.4743C46.5793 23.233 46.3875 23.0453 46.1446 22.9665C43.0579 21.9631 33.9181 18.9934 31.5228 18.2158C31.1791 18.1037 30.8029 18.2329 30.5998 18.5311C29.585 20.0236 26.6665 24.3161 26.6665 24.3161L42.9165 29.6063C42.9165 29.6063 45.3938 25.9338 46.5671 24.1934Z" fill="url(#paint5_linear_1412_16049)"/>
<path id="Vector_7" fill-rule="evenodd" clip-rule="evenodd" d="M42.9165 29.6066L26.6665 24.3164L10.4165 29.6066L26.6665 34.8789L42.9165 29.6066Z" fill="url(#paint6_linear_1412_16049)"/>
<path id="Vector_8" fill-rule="evenodd" clip-rule="evenodd" d="M26.6665 34.8789V24.3164L10.4165 29.6066L26.6665 34.8789Z" fill="url(#paint7_linear_1412_16049)"/>
<g id="Group">
<path id="Vector_9" fill-rule="evenodd" clip-rule="evenodd" d="M23.4019 26.6494C23.0639 26.4284 22.7592 26.1919 22.4886 25.9441C22.1588 25.641 21.6445 25.663 21.3406 25.9937C21.0375 26.3235 21.0595 26.8378 21.3901 27.1409C21.7225 27.4464 22.097 27.7373 22.513 28.0095C22.8884 28.2548 23.3921 28.1492 23.6375 27.7738C23.8829 27.3985 23.7773 26.8947 23.4019 26.6494Z" fill="url(#paint8_linear_1412_16049)"/>
<path id="Vector_10" fill-rule="evenodd" clip-rule="evenodd" d="M20.8703 24.1534C20.629 23.8259 20.4251 23.4969 20.2577 23.1678C20.0546 22.768 19.5646 22.6088 19.1649 22.8119C18.7651 23.015 18.6059 23.505 18.809 23.9047C19.0154 24.3094 19.2656 24.7148 19.5622 25.117C19.8279 25.4777 20.3365 25.5549 20.6981 25.2892C21.0588 25.0227 21.136 24.5141 20.8703 24.1534Z" fill="url(#paint9_linear_1412_16049)"/>
<path id="Vector_11" fill-rule="evenodd" clip-rule="evenodd" d="M19.6824 20.8371C19.6905 20.5096 19.7384 20.1919 19.8262 19.8872C19.9497 19.4566 19.7002 19.0057 19.2688 18.8822C18.8382 18.7587 18.3872 19.0081 18.2637 19.4396C18.1394 19.8751 18.0695 20.3292 18.0574 20.7964C18.0468 21.2449 18.401 21.6179 18.8495 21.6284C19.298 21.6398 19.671 21.2856 19.6824 20.8371Z" fill="url(#paint10_linear_1412_16049)"/>
<path id="Vector_12" fill-rule="evenodd" clip-rule="evenodd" d="M20.9318 18.1234C21.1406 17.93 21.3746 17.7513 21.6305 17.5896C22.0099 17.3499 22.1237 16.8478 21.8848 16.4691C21.6451 16.0897 21.143 15.9759 20.7636 16.2148C20.4199 16.4318 20.1079 16.6714 19.8276 16.9314C19.4985 17.2361 19.479 17.7504 19.7837 18.0795C20.0884 18.4086 20.6027 18.4281 20.9318 18.1234Z" fill="url(#paint11_linear_1412_16049)"/>
<path id="Vector_13" fill-rule="evenodd" clip-rule="evenodd" d="M23.9535 16.722C24.3622 16.6464 24.7953 16.5977 25.2519 16.579C25.7004 16.5595 26.0481 16.1801 26.0295 15.7324C26.0108 15.2847 25.6313 14.9361 25.1828 14.9548C24.6466 14.9776 24.138 15.0353 23.6578 15.1238C23.2174 15.2059 22.9249 15.63 23.007 16.0704C23.0882 16.5116 23.5123 16.8033 23.9535 16.722Z" fill="url(#paint12_linear_1412_16049)"/>
<path id="Vector_14" fill-rule="evenodd" clip-rule="evenodd" d="M28.1886 16.6742C28.8816 16.6823 29.5267 16.658 30.1256 16.6051C30.5724 16.5653 30.9031 16.1705 30.8633 15.7236C30.8235 15.2775 30.4286 14.9468 29.9817 14.9866C29.4333 15.0346 28.8426 15.0573 28.2072 15.0492C27.7587 15.0443 27.3907 15.4043 27.3858 15.852C27.3801 16.3005 27.7401 16.6693 28.1886 16.6742Z" fill="url(#paint13_linear_1412_16049)"/>
<path id="Vector_15" fill-rule="evenodd" clip-rule="evenodd" d="M32.796 16.1065C33.6003 15.8603 34.2796 15.5451 34.8483 15.1835C35.2261 14.9422 35.3383 14.4401 35.097 14.0615C34.8565 13.6837 34.3535 13.5715 33.9749 13.8128C33.5175 14.1037 32.969 14.354 32.3206 14.5522C31.8925 14.6838 31.6503 15.138 31.782 15.567C31.9128 15.996 32.3678 16.2373 32.796 16.1065Z" fill="url(#paint14_linear_1412_16049)"/>
<path id="Vector_16" fill-rule="evenodd" clip-rule="evenodd" d="M36.9315 12.9097C37.315 12.1167 37.4621 11.2782 37.4247 10.4697C37.4036 10.0212 37.0225 9.67511 36.5749 9.69623C36.1272 9.71736 35.7802 10.0976 35.8014 10.5453C35.8274 11.0945 35.7282 11.6641 35.4682 12.2028C35.2732 12.6066 35.4422 13.0933 35.846 13.2883C36.2499 13.4833 36.7365 13.3135 36.9315 12.9097Z" fill="url(#paint15_linear_1412_16049)"/>
<path id="Vector_17" fill-rule="evenodd" clip-rule="evenodd" d="M36.4143 7.59671C35.822 6.7964 35.0184 6.23902 34.1425 6.05946C33.703 5.97009 33.2732 6.25284 33.183 6.6924C33.0936 7.13196 33.3772 7.56177 33.8159 7.65196C34.3213 7.75515 34.7665 8.10209 35.1086 8.5644C35.3759 8.92434 35.8853 8.9999 36.2453 8.7334C36.606 8.46609 36.6816 7.95665 36.4143 7.59671Z" fill="url(#paint16_linear_1412_16049)"/>
</g>
<path id="Vector_18" fill-rule="evenodd" clip-rule="evenodd" d="M25.7993 6.21751C26.6784 1.23932 34.2973 1.56107 29.8618 6.21751H25.7993Z" fill="url(#paint17_linear_1412_16049)"/>
<path id="Vector_19" fill-rule="evenodd" clip-rule="evenodd" d="M25.7993 7.47852C26.6784 12.4559 34.2973 12.135 29.8618 7.47852H25.7993Z" fill="url(#paint18_linear_1412_16049)"/>
<path id="Vector_20" fill-rule="evenodd" clip-rule="evenodd" d="M25.7266 7.66894H31.1671C31.6156 7.66894 31.9796 7.30495 31.9796 6.85645C31.9796 6.40795 31.6156 6.04395 31.1671 6.04395H25.7266C25.2789 6.04395 24.9141 6.40795 24.9141 6.85645C24.9141 7.30495 25.2789 7.66894 25.7266 7.66894Z" fill="url(#paint19_linear_1412_16049)"/>
</g>
</g>
<defs>
<linearGradient id="paint0_linear_1412_16049" x1="10.4165" y1="40.1332" x2="42.9165" y2="40.1332" gradientUnits="userSpaceOnUse">
<stop stop-color="#CADCF0"/>
<stop offset="1" stop-color="#A4BBDB"/>
</linearGradient>
<linearGradient id="paint1_linear_1412_16049" x1="26.5964" y1="40.1332" x2="42.9162" y2="40.1332" gradientUnits="userSpaceOnUse">
<stop stop-color="#A4BBDB"/>
<stop offset="1" stop-color="#8DA3BE"/>
</linearGradient>
<linearGradient id="paint2_linear_1412_16049" x1="10.5245" y1="29.5999" x2="12.7957" y2="44.6258" gradientUnits="userSpaceOnUse">
<stop stop-color="#E9F3FC"/>
<stop offset="1" stop-color="#CADCF0"/>
</linearGradient>
<linearGradient id="paint3_linear_1412_16049" x1="26.7323" y1="34.8235" x2="43.8628" y2="44.6758" gradientUnits="userSpaceOnUse">
<stop stop-color="#E9F3FC"/>
<stop offset="1" stop-color="#CADCF0"/>
</linearGradient>
<linearGradient id="paint4_linear_1412_16049" x1="8.28912" y1="26.4529" x2="10.7405" y2="14.8973" gradientUnits="userSpaceOnUse">
<stop stop-color="#E9F3FC"/>
<stop offset="1" stop-color="#CADCF0"/>
</linearGradient>
<linearGradient id="paint5_linear_1412_16049" x1="31.0166" y1="18.02" x2="31.8932" y2="32.2832" gradientUnits="userSpaceOnUse">
<stop stop-color="#E9F3FC"/>
<stop offset="1" stop-color="#CADCF0"/>
</linearGradient>
<linearGradient id="paint6_linear_1412_16049" x1="10.4165" y1="29.5977" x2="42.9165" y2="29.5977" gradientUnits="userSpaceOnUse">
<stop stop-color="#CADCF0"/>
<stop offset="1" stop-color="#A4BBDB"/>
</linearGradient>
<linearGradient id="paint7_linear_1412_16049" x1="28.3305" y1="24.08" x2="28.6807" y2="37.2043" gradientUnits="userSpaceOnUse">
<stop stop-color="#A4BBDB"/>
<stop offset="1" stop-color="#8DA3BE"/>
</linearGradient>
<linearGradient id="paint8_linear_1412_16049" x1="17.7217" y1="6.21741" x2="33.7475" y2="25.1267" gradientUnits="userSpaceOnUse">
<stop stop-color="#559AFF"/>
<stop offset="1" stop-color="#2E69EF"/>
</linearGradient>
<linearGradient id="paint9_linear_1412_16049" x1="17.7219" y1="6.21742" x2="33.7476" y2="25.1267" gradientUnits="userSpaceOnUse">
<stop stop-color="#559AFF"/>
<stop offset="1" stop-color="#2E69EF"/>
</linearGradient>
<linearGradient id="paint10_linear_1412_16049" x1="17.7218" y1="6.21694" x2="33.7475" y2="25.1263" gradientUnits="userSpaceOnUse">
<stop stop-color="#559AFF"/>
<stop offset="1" stop-color="#2E69EF"/>
</linearGradient>
<linearGradient id="paint11_linear_1412_16049" x1="17.7216" y1="6.217" x2="33.7473" y2="25.1263" gradientUnits="userSpaceOnUse">
<stop stop-color="#559AFF"/>
<stop offset="1" stop-color="#2E69EF"/>
</linearGradient>
<linearGradient id="paint12_linear_1412_16049" x1="17.7217" y1="6.21719" x2="33.7474" y2="25.1265" gradientUnits="userSpaceOnUse">
<stop stop-color="#559AFF"/>
<stop offset="1" stop-color="#2E69EF"/>
</linearGradient>
<linearGradient id="paint13_linear_1412_16049" x1="17.7219" y1="6.21734" x2="33.7477" y2="25.1267" gradientUnits="userSpaceOnUse">
<stop stop-color="#559AFF"/>
<stop offset="1" stop-color="#2E69EF"/>
</linearGradient>
<linearGradient id="paint14_linear_1412_16049" x1="17.7217" y1="6.21679" x2="33.7474" y2="25.1261" gradientUnits="userSpaceOnUse">
<stop stop-color="#559AFF"/>
<stop offset="1" stop-color="#2E69EF"/>
</linearGradient>
<linearGradient id="paint15_linear_1412_16049" x1="17.7216" y1="6.2171" x2="33.7474" y2="25.1264" gradientUnits="userSpaceOnUse">
<stop stop-color="#559AFF"/>
<stop offset="1" stop-color="#2E69EF"/>
</linearGradient>
<linearGradient id="paint16_linear_1412_16049" x1="17.7219" y1="6.21709" x2="33.7476" y2="25.1264" gradientUnits="userSpaceOnUse">
<stop stop-color="#559AFF"/>
<stop offset="1" stop-color="#2E69EF"/>
</linearGradient>
<linearGradient id="paint17_linear_1412_16049" x1="25.7993" y1="4.41051" x2="31.239" y2="4.41051" gradientUnits="userSpaceOnUse">
<stop stop-color="#E9F3FC"/>
<stop offset="1" stop-color="#CADCF0"/>
</linearGradient>
<linearGradient id="paint18_linear_1412_16049" x1="25.7993" y1="9.28552" x2="31.239" y2="9.28552" gradientUnits="userSpaceOnUse">
<stop stop-color="#E9F3FC"/>
<stop offset="1" stop-color="#CADCF0"/>
</linearGradient>
<linearGradient id="paint19_linear_1412_16049" x1="17.7218" y1="6.21782" x2="33.7476" y2="25.1271" gradientUnits="userSpaceOnUse">
<stop stop-color="#559AFF"/>
<stop offset="1" stop-color="#2E69EF"/>
</linearGradient>
</defs>
</svg>
