<svg width="29" height="30" viewBox="0 0 29 30" fill="none" xmlns="http://www.w3.org/2000/svg">
<rect width="29" height="29.3019" rx="6" fill="url(#paint0_linear_2_423)"/>
<path d="M14.934 8.74414L20.3865 18.2865C20.5769 18.6198 20.3362 19.0345 19.9523 19.0345H9.04732C8.66342 19.0345 8.42273 18.6198 8.6132 18.2865L14.0657 8.74414C14.2576 8.40822 14.742 8.40822 14.934 8.74414Z" stroke="white"/>
<path fill-rule="evenodd" clip-rule="evenodd" d="M15.3252 11.8594C15.3252 11.4728 15.0118 11.1594 14.6252 11.1594C14.2386 11.1594 13.9252 11.4728 13.9252 11.8594V14.7663C13.9252 15.1529 14.2386 15.4663 14.6252 15.4663C15.0118 15.4663 15.3252 15.1529 15.3252 14.7663V11.8594ZM14.6228 15.9746C14.0705 15.9746 13.6228 16.4223 13.6228 16.9746C13.6228 17.5269 14.0705 17.9746 14.6228 17.9746H14.6271C15.1794 17.9746 15.6271 17.5269 15.6271 16.9746C15.6271 16.4223 15.1794 15.9746 14.6271 15.9746H14.6228Z" fill="white"/>
<defs>
<linearGradient id="paint0_linear_2_423" x1="0" y1="14.651" x2="29" y2="14.651" gradientUnits="userSpaceOnUse">
<stop stop-color="#EDBA5D"/>
<stop offset="1" stop-color="#EDDF5D"/>
</linearGradient>
</defs>
</svg>
