<svg width="29" height="30" viewBox="0 0 29 30" fill="none" xmlns="http://www.w3.org/2000/svg">
<rect width="29" height="29.3019" rx="6" fill="url(#paint0_linear_2_414)"/>
<path d="M15.1907 9.07031L9.66693 12.1201V17.542L15.1907 20.9306L20.7146 17.542V12.1201L15.1907 9.07031Z" stroke="white"/>
<path fill-rule="evenodd" clip-rule="evenodd" d="M15.8911 11.8594C15.8911 11.4728 15.5777 11.1594 15.1911 11.1594C14.8045 11.1594 14.4911 11.4728 14.4911 11.8594V14.7663C14.4911 15.1529 14.8045 15.4663 15.1911 15.4663C15.5777 15.4663 15.8911 15.1529 15.8911 14.7663V11.8594ZM15.1882 15.9746C14.6359 15.9746 14.1882 16.4223 14.1882 16.9746C14.1882 17.5269 14.6359 17.9746 15.1882 17.9746H15.1934C15.7457 17.9746 16.1934 17.5269 16.1934 16.9746C16.1934 16.4223 15.7457 15.9746 15.1934 15.9746H15.1882Z" fill="white"/>
<defs>
<linearGradient id="paint0_linear_2_414" x1="-1.09642e-06" y1="16.6044" x2="26.8999" y2="6.05128" gradientUnits="userSpaceOnUse">
<stop stop-color="#EB7556"/>
<stop offset="1" stop-color="#F2888E"/>
</linearGradient>
</defs>
</svg>
